HIERARCHY
ROOT Hips
{
	OFFSET 0.00000 0.00000 0.00000
	CHANNELS 6 Xposition Yposition Zposition Zrotation Yrotation Xrotation 
	JOINT LHipJoint
	{
		OFFSET 0 0 0
		CHANNELS 3 Zrotation Yrotation Xrotation
		JOINT LeftHip
		{
			OFFSET 1.80322 -1.53100 0.99595
			CHANNELS 3 Zrotation Yrotation Xrotation
			JOINT LeftKnee
			{
				OFFSET 2.25177 -6.18669 0.00000
				CHANNELS 3 Zrotation Yrotation Xrotation
				JOINT LeftAnkle
				{
					OFFSET 2.26601 -6.22582 0.00000
					CHANNELS 3 Zrotation Yrotation Xrotation
					JOINT LeftToe
					{
						OFFSET 0.23701 -0.65119 2.15848
						CHANNELS 3 Zrotation Yrotation Xrotation
						End Site
						{
							OFFSET 0.00000 -0.00000 1.12949
						}
					}
				}
			}
		}
	}
	JOINT RHipJoint
	{
		OFFSET 0 0 0
		CHANNELS 3 Zrotation Yrotation Xrotation
		JOINT RightHip
		{
			OFFSET -1.93977 -1.53100 0.99595
			CHANNELS 3 Zrotation Yrotation Xrotation
			JOINT RightKnee
			{
				OFFSET -2.28036 -6.26523 0.00000
				CHANNELS 3 Zrotation Yrotation Xrotation
				JOINT RightAnkle
				{
					OFFSET -2.25490 -6.19528 0.00000
					CHANNELS 3 Zrotation Yrotation Xrotation
					JOINT RightToe
					{
						OFFSET -0.28375 -0.77960 2.23137
						CHANNELS 3 Zrotation Yrotation Xrotation
						End Site
						{
							OFFSET -0.00000 -0.00000 1.17899
						}
					}
				}
			}
		}
	}
	JOINT lowerback
	{
		OFFSET 0 0 0
		CHANNELS 3 Zrotation Yrotation Xrotation
		JOINT Chest
		{
			OFFSET -0.00088 2.12090 -0.02806
			CHANNELS 3 Zrotation Yrotation Xrotation
			JOINT Chest2
			{
				OFFSET -0.00286 2.09666 0.12974
				CHANNELS 3 Zrotation Yrotation Xrotation
				JOINT lowerneck
				{
					OFFSET 0 0 0
					CHANNELS 3 Zrotation Yrotation Xrotation
					JOINT Neck
					{
						OFFSET 0.07328 1.83526 0.07290
						CHANNELS 3 Zrotation Yrotation Xrotation
						JOINT Head
						{
							OFFSET -0.06683 1.74974 -0.49542
							CHANNELS 3 Zrotation Yrotation Xrotation
							End Site
							{
								OFFSET -0.03398 1.85163 -0.17573
							}
						}
					}
				}
				JOINT LeftCollar
				{
					OFFSET 0 0 0
					CHANNELS 3 Zrotation Yrotation Xrotation
					JOINT LeftShoulder
					{
						OFFSET 3.02113 1.18018 0.40602
CHANNELS 3 Zrotation Xrotation Yrotation
						JOINT LeftElbow
						{
OFFSET 0 -4.585380 -0.000000
CHANNELS 3 Zrotation Xrotation Yrotation
							JOINT LeftWrist
							{
OFFSET 0 -2.689350 -0.000000
CHANNELS 3 Zrotation Xrotation Yrotation
								JOINT lhand
								{
									OFFSET 0 0 0
CHANNELS 3 Zrotation Xrotation Yrotation
									JOINT LFingers
									{
OFFSET 0 -0.585060 -0.000000
CHANNELS 3 Zrotation Xrotation Yrotation
										End Site
										{
OFFSET 0 -0.471690 -0.000000
										}
									}
								}
								JOINT LThumb
								{
OFFSET 0 0.000000 0.000000
CHANNELS 3 Zrotation Xrotation Yrotation
									End Site
									{
OFFSET 0 -0.478890 0.478890
									}
								}
							}
						}
					}
				}
				JOINT RightCollar
				{
					OFFSET 0 0 0
					CHANNELS 3 Zrotation Yrotation Xrotation
					JOINT RightShoulder
					{
						OFFSET -2.95074 1.18843 0.31430
CHANNELS 3 Zrotation Xrotation Yrotation
						JOINT RightElbow
						{
OFFSET 0 -4.474500 -0.000000
CHANNELS 3 Zrotation Xrotation Yrotation
							JOINT RightWrist
							{
OFFSET 0 -2.938960 -0.000000
CHANNELS 3 Zrotation Xrotation Yrotation
								JOINT rhand
								{
									OFFSET 0 0 0
CHANNELS 3 Zrotation Xrotation Yrotation
									JOINT RFingers
									{
OFFSET 0 -0.405090 -0.000000
CHANNELS 3 Zrotation Xrotation Yrotation
										End Site
										{
OFFSET 0 -0.326600 -0.000000
										}
									}
								}
								JOINT RThumb
								{
OFFSET 0 0.000000 0.000000
CHANNELS 3 Zrotation Xrotation Yrotation
									End Site
									{
OFFSET 0 -0.331580 0.331580
									}
								}
							}
						}
					}
				}
			}
		}
	}
}
MOTION
Frames: 9
Frame Time: 0.008333333333333333
-1.791900 15.039000 -3.916100 -4.572200 -22.354100 11.818700 0.000000 0.000000 0.000000 4.923300 -22.688000 -33.721700 4.211700 12.436900 37.295700 -0.320300 19.054000 -24.198100 1.012300 6.401600 17.954100 0.000000 0.000000 0.000000 26.390100 6.776800 -9.614000 -3.188400 -10.994000 32.259700 -2.529700 -11.111000 -35.590000 -0.000300 0.102900 -0.282900 5.262300 -1.837500 -6.296800 1.423200 -2.664500 -6.731900 -1.540700 -1.551100 -3.633600 0.346000 -1.949200 -13.532200 -4.618600 -1.741500 29.333900 -2.044200 -1.427400 11.780000 0.000000 0.000000 0.000000 7.551700 14.381100 -39.559700 151.863900 -39.241200 109.790300 19.893400 4.685300 -5.085600 0.000000 0.000000 0.000000 -7.125000 0.000000 0.000000 -5.650000 35.340200 -1.346100 0.000000 0.000000 0.000000 -17.374800 10.404700 50.799200 -145.785400 -44.243100 -105.737500 -11.894000 -22.453000 1.169900 0.000000 0.000000 0.000000 7.125000 0.000000 -0.000000 11.649700 31.047400 4.046700
-1.758538 15.018960 -3.812266 -4.403836 -22.499245 11.722404 0.000000 0.000000 0.000000 4.275851 -24.459588 -32.483987 4.167518 12.379985 37.089873 -0.273992 20.249488 -26.465761 1.004147 6.376392 17.880565 0.000000 0.000000 0.000000 25.949716 6.870501 -9.271575 -3.234601 -11.065374 32.500820 -2.600130 -11.122651 -35.970565 -0.001300 0.233535 -0.641728 5.252177 -1.845530 -7.091371 1.884767 -2.714062 -7.043220 -1.082135 -1.569956 -3.499641 0.429764 -1.809967 -13.133100 -5.335080 -1.355786 29.661678 -2.277990 -1.340875 11.832706 0.000000 0.000000 0.000000 7.824661 13.955019 -37.958102 152.894599 -38.279445 110.435690 20.457922 4.318750 -5.541971 0.000000 0.000000 0.000000 -7.125000 0.000000 0.000000 -5.226943 35.851333 -1.179283 0.000000 0.000000 0.000000 -17.555412 8.273511 49.858225 -146.483928 -43.722986 -106.222510 -12.405873 -21.850618 1.161748 0.000000 0.000000 0.000000 7.125000 0.000000 0.000000 11.246844 31.050536 3.900882
-1.729229 15.010160 -3.721425 -3.882432 -21.907674 11.479963 0.000000 0.000000 0.000000 3.709475 -27.573357 -31.426448 4.137122 12.340672 36.948001 -0.128986 21.535725 -29.484053 1.230193 7.034055 19.816374 0.000000 0.000000 0.000000 25.410754 6.966530 -8.875663 -3.277685 -11.131628 32.725015 -2.651877 -11.765303 -36.657786 -0.001287 0.234019 -0.642960 4.560273 -1.992911 -7.471668 2.286230 -2.884812 -7.495331 -0.290630 -1.627696 -3.713814 0.105696 -1.895926 -12.912740 -5.510565 -1.341079 30.391577 -2.307867 -1.404111 12.082160 0.000000 0.000000 0.000000 8.306875 13.147629 -37.426620 153.545509 -37.653957 110.836152 20.716923 4.406340 -5.548678 0.000000 0.000000 0.000000 -7.125000 0.000000 0.000000 -5.011738 35.871707 -1.127912 0.000000 0.000000 0.000000 -17.351869 6.968678 48.498410 -147.590022 -42.871520 -106.981065 -12.109298 -21.782928 1.231117 0.000000 0.000000 0.000000 7.125000 0.000000 0.000000 11.488424 31.113472 3.970002
-1.697501 15.001676 -3.644854 -3.542037 -21.192158 11.313722 0.000000 0.000000 0.000000 3.457627 -30.496965 -30.666148 4.149704 12.356946 37.006777 0.006810 22.554064 -31.835261 1.330579 7.304608 20.620910 0.000000 0.000000 0.000000 25.118171 7.168811 -8.411322 -3.293805 -11.156148 32.808348 -2.685185 -12.571420 -37.362706 -0.000900 0.193605 -0.531875 4.050461 -2.010741 -7.587909 2.476674 -2.878019 -7.848068 0.196557 -1.604293 -3.983092 -0.149101 -2.082747 -13.146871 -5.284268 -1.598373 31.519328 -2.259839 -1.535701 12.587299 0.000000 0.000000 0.000000 9.341841 11.629601 -37.695369 153.915670 -37.291844 111.061344 20.928807 4.846052 -5.655313 0.000000 0.000000 0.000000 -7.125000 0.000000 0.000000 -4.845405 35.996227 -1.075521 0.000000 0.000000 0.000000 -16.954860 6.078981 47.482122 -148.638333 -42.032273 -107.688740 -12.872980 -21.790630 1.613791 0.000000 0.000000 0.000000 7.125000 0.000000 0.000000 10.935180 31.515701 3.664807
-1.658552 14.994273 -3.576512 -3.331695 -20.719304 11.258954 0.000000 0.000000 0.000000 3.237513 -32.893511 -30.075224 4.175500 12.390400 37.127375 0.157827 23.453424 -33.976214 1.417373 7.529249 21.292971 0.000000 0.000000 0.000000 24.843835 7.235493 -8.101313 -3.294536 -11.157167 32.811908 -2.703148 -13.089017 -37.803027 -0.001100 0.211102 -0.579905 3.884244 -1.882312 -7.657557 2.464537 -2.695286 -8.114925 0.289188 -1.511150 -4.214588 0.086698 -2.216460 -12.597648 -5.404310 -1.831305 31.359924 -2.360380 -1.621127 12.390398 0.000000 0.000000 0.000000 10.387968 10.061588 -38.022154 154.099393 -37.110358 111.172366 21.352386 5.864425 -6.136657 0.000000 0.000000 0.000000 -7.125000 0.000000 0.000000 -4.537709 36.532556 -0.947374 0.000000 0.000000 0.000000 -16.888526 4.920745 47.098514 -149.049914 -41.693922 -107.963367 -13.125793 -21.618865 1.650991 0.000000 0.000000 0.000000 7.125000 0.000000 0.000000 10.739976 31.559369 3.585801
-1.625046 14.991305 -3.527560 -2.916970 -20.283463 11.305186 0.000000 0.000000 0.000000 2.857223 -34.260465 -29.956091 4.155468 12.364455 37.033683 0.203456 23.945968 -34.886991 1.449310 7.610024 21.535773 0.000000 0.000000 0.000000 24.357518 7.336367 -8.144985 -3.328440 -11.208591 32.986716 -2.741525 -13.485829 -38.264860 -0.001100 0.214363 -0.588974 3.519005 -1.824268 -7.778334 2.349129 -2.606394 -8.253291 0.375067 -1.453565 -4.278367 0.581783 -2.365500 -11.284984 -5.908658 -2.066417 28.992809 -2.544432 -1.695451 11.155774 0.000000 0.000000 0.000000 10.897369 9.033802 -37.976236 154.234115 -36.976616 111.253548 21.617844 6.147240 -6.570461 0.000000 0.000000 0.000000 -7.125000 0.000000 0.000000 -4.357124 37.011689 -0.858338 0.000000 0.000000 0.000000 -17.128494 3.531330 47.423098 -149.048344 -41.695298 -107.962329 -13.225021 -21.456309 1.305988 0.000000 0.000000 0.000000 7.125000 0.000000 0.000000 10.620077 31.213576 3.634299
-1.600696 14.991238 -3.501458 -2.647614 -19.831109 11.348386 0.000000 0.000000 0.000000 2.696389 -35.215541 -30.018976 4.144743 12.350557 36.983575 0.210377 24.215051 -35.276611 1.460553 7.638101 21.620204 0.000000 0.000000 0.000000 24.085093 7.421531 -8.168874 -3.345557 -11.234405 33.074687 -2.765543 -13.858775 -38.639451 -0.000562 0.157347 -0.432244 3.309583 -1.772143 -7.617804 2.198474 -2.519964 -8.321745 0.346711 -1.405256 -4.434523 0.207569 -2.584981 -11.858331 -5.412439 -2.419682 29.191116 -2.362144 -1.838674 11.349812 0.000000 0.000000 0.000000 10.999418 9.058830 -37.996087 154.271489 -36.939373 111.276043 21.678462 5.845472 -6.375219 0.000000 0.000000 0.000000 -7.125000 0.000000 0.000000 -4.286761 36.806324 -0.865925 0.000000 0.000000 0.000000 -17.227940 2.899730 48.101411 -149.073017 -41.674850 -107.978745 -13.047894 -21.440772 0.821951 0.000000 0.000000 0.000000 7.125000 0.000000 0.000000 10.702442 30.721547 3.791891
-1.590767 14.991667 -3.485034 -2.618955 -19.363519 11.483593 0.000000 0.000000 0.000000 2.779042 -35.495559 -30.390881 4.161832 12.372665 37.063327 0.109767 24.385030 -34.931503 1.395785 7.474119 21.127747 0.000000 0.000000 0.000000 24.119983 7.436274 -8.144214 -3.323002 -11.200459 32.959055 -2.771066 -14.161632 -38.877121 -0.000256 0.098460 -0.270468 3.284291 -1.684148 -7.472090 2.027546 -2.394171 -8.478127 0.198345 -1.349580 -4.686104 -0.462948 -2.673647 -13.352362 -4.148505 -2.724409 32.125586 -1.952987 -1.920878 12.869645 0.000000 0.000000 0.000000 10.715220 9.655532 -38.367394 153.933894 -37.273917 111.072339 21.499804 5.918303 -6.154717 0.000000 0.000000 0.000000 -7.125000 0.000000 0.000000 -4.415613 36.560164 -0.918749 0.000000 0.000000 0.000000 -17.014666 3.069030 48.735690 -148.771094 -41.923700 -107.777485 -12.801440 -21.544511 0.348126 0.000000 0.000000 0.000000 7.125000 0.000000 0.000000 10.840755 30.239704 3.969767
-1.596766 14.987142 -3.472939 -2.680572 -18.935891 11.527288 0.000000 0.000000 0.000000 2.833087 -35.232134 -30.731173 4.187832 12.406141 37.184496 -0.036610 24.369326 -34.061936 1.284495 7.181916 20.255506 0.000000 0.000000 0.000000 24.285811 7.230556 -8.035518 -3.290164 -11.150595 32.789515 -2.780370 -14.298691 -39.017925 -0.000100 0.066570 -0.182868 3.250057 -1.613383 -7.561643 1.805314 -2.307801 -8.429772 -0.015519 -1.309068 -4.590231 -0.228624 -2.595649 -13.766252 -3.503267 -2.898592 33.761711 -1.834083 -1.889468 13.663792 0.000000 0.000000 0.000000 10.431236 9.759914 -38.587445 153.556050 -37.643741 110.842567 21.119210 6.361909 -5.835416 0.000000 0.000000 0.000000 -7.125000 0.000000 0.000000 -4.703737 36.198216 -1.020663 0.000000 0.000000 0.000000 -16.597404 3.197084 48.987499 -148.326059 -42.285716 -107.479086 -12.566346 -20.973740 -0.093456 0.000000 0.000000 0.000000 7.125000 0.000000 0.000000 10.974036 29.791839 4.139723
